<?xml version="1.0" encoding="UTF-8" standalone="no"?>
<!DOCTYPE svg PUBLIC "-//W3C//DTD SVG 1.1//EN" "http://www.w3.org/Graphics/SVG/1.1/DTD/svg11.dtd">
<svg xmlns="http://www.w3.org/2000/svg" version="1.1" viewBox="0.00 0.00 256.00 256.00">
<g stroke-width="2.00" fill="none" stroke-linecap="butt">
<path stroke="#8b9091" vector-effect="non-scaling-stroke" d="
  M 170.18 132.70
  Q 170.85 131.70 171.89 130.65
  C 184.35 118.10 189.01 98.58 179.10 83.08
  C 169.99 68.83 153.60 65.55 138.00 65.54
  Q 109.30 65.52 80.75 65.46
  A 0.42 0.42 0.0 0 0 80.33 65.88
  L 80.34 208.98
  Q 80.34 209.88 81.23 209.88
  Q 111.13 209.86 141.50 209.96
  Q 149.84 209.98 157.13 208.36
  C 175.68 204.24 189.37 189.89 190.57 170.97
  C 191.54 155.81 184.08 141.26 170.46 133.84
  A 0.79 0.78 31.5 0 1 170.18 132.70"
/>
<path stroke="#8b9091" vector-effect="non-scaling-stroke" d="
  M 100.96 83.24
  L 100.88 126.68
  A 0.62 0.62 0.0 0 0 101.50 127.30
  L 142.14 127.37
  A 21.64 21.64 0.0 0 0 163.82 105.76
  L 163.82 104.36
  A 21.64 21.64 0.0 0 0 142.22 82.69
  L 101.58 82.62
  A 0.62 0.62 0.0 0 0 100.96 83.24"
/>
<path stroke="#8b9091" vector-effect="non-scaling-stroke" d="
  M 100.96 143.83
  L 100.88 192.23
  A 0.61 0.61 0.0 0 0 101.49 192.84
  L 145.06 192.92
  A 24.64 24.11 0.1 0 0 169.74 168.85
  L 169.74 167.45
  A 24.64 24.11 0.1 0 0 145.14 143.30
  L 101.57 143.22
  A 0.61 0.61 0.0 0 0 100.96 143.83"
/>
</g>
<path fill="#1a2c32" d="
  M 21.08 0.00
  L 236.46 0.00
  Q 251.85 1.79 256.00 15.29
  L 256.00 240.83
  Q 251.45 254.63 235.88 256.00
  L 20.55 256.00
  C 7.27 254.62 2.29 247.23 0.00 235.41
  L 0.00 20.49
  C 2.51 7.41 7.64 1.88 21.08 0.00
  Z
  M 170.18 132.70
  Q 170.85 131.70 171.89 130.65
  C 184.35 118.10 189.01 98.58 179.10 83.08
  C 169.99 68.83 153.60 65.55 138.00 65.54
  Q 109.30 65.52 80.75 65.46
  A 0.42 0.42 0.0 0 0 80.33 65.88
  L 80.34 208.98
  Q 80.34 209.88 81.23 209.88
  Q 111.13 209.86 141.50 209.96
  Q 149.84 209.98 157.13 208.36
  C 175.68 204.24 189.37 189.89 190.57 170.97
  C 191.54 155.81 184.08 141.26 170.46 133.84
  A 0.79 0.78 31.5 0 1 170.18 132.70
  Z"
/>
<path fill="#fcf4f0" d="
  M 170.18 132.70
  A 0.79 0.78 31.5 0 0 170.46 133.84
  C 184.08 141.26 191.54 155.81 190.57 170.97
  C 189.37 189.89 175.68 204.24 157.13 208.36
  Q 149.84 209.98 141.50 209.96
  Q 111.13 209.86 81.23 209.88
  Q 80.34 209.88 80.34 208.98
  L 80.33 65.88
  A 0.42 0.42 0.0 0 1 80.75 65.46
  Q 109.30 65.52 138.00 65.54
  C 153.60 65.55 169.99 68.83 179.10 83.08
  C 189.01 98.58 184.35 118.10 171.89 130.65
  Q 170.85 131.70 170.18 132.70
  Z
  M 100.96 83.24
  L 100.88 126.68
  A 0.62 0.62 0.0 0 0 101.50 127.30
  L 142.14 127.37
  A 21.64 21.64 0.0 0 0 163.82 105.76
  L 163.82 104.36
  A 21.64 21.64 0.0 0 0 142.22 82.69
  L 101.58 82.62
  A 0.62 0.62 0.0 0 0 100.96 83.24
  Z
  M 100.96 143.83
  L 100.88 192.23
  A 0.61 0.61 0.0 0 0 101.49 192.84
  L 145.06 192.92
  A 24.64 24.11 0.1 0 0 169.74 168.85
  L 169.74 167.45
  A 24.64 24.11 0.1 0 0 145.14 143.30
  L 101.57 143.22
  A 0.61 0.61 0.0 0 0 100.96 143.83
  Z"
/>
<path fill="#1a2c32" d="
  M 100.96 83.24
  A 0.62 0.62 0.0 0 1 101.58 82.62
  L 142.22 82.69
  A 21.64 21.64 0.0 0 1 163.82 104.36
  L 163.82 105.76
  A 21.64 21.64 0.0 0 1 142.14 127.37
  L 101.50 127.30
  A 0.62 0.62 0.0 0 1 100.88 126.68
  L 100.96 83.24
  Z"
/>
<path fill="#1a2c32" d="
  M 100.96 143.83
  A 0.61 0.61 0.0 0 1 101.57 143.22
  L 145.14 143.30
  A 24.64 24.11 0.1 0 1 169.74 167.45
  L 169.74 168.85
  A 24.64 24.11 0.1 0 1 145.06 192.92
  L 101.49 192.84
  A 0.61 0.61 0.0 0 1 100.88 192.23
  L 100.96 143.83
  Z"
/>
</svg>
